<svg xmlns="http://www.w3.org/2000/svg" xmlns:xlink="http://www.w3.org/1999/xlink" contentStyleType="text/css" height="241px" preserveAspectRatio="none" style="width:1417px;height:241px;background:#FFFFFF;" version="1.1" viewBox="0 0 1417 241" width="1417px" zoomAndPan="magnify"><defs/><g><!--class Main--><g id="elem_Main"><rect codeLine="1" fill="#F1F1F1" height="64.2969" id="Main" rx="2.5" ry="2.5" style="stroke:#181818;stroke-width:0.5;" width="198.3682" x="7" y="88.49"/><ellipse cx="85.2236" cy="104.49" fill="#ADD1B2" rx="11" ry="11" style="stroke:#181818;stroke-width:1.0;"/><path d="M88.1924,110.1306 Q87.6143,110.4275 86.9736,110.5681 Q86.333,110.7244 85.6299,110.7244 Q83.1299,110.7244 81.8018,109.0838 Q80.4893,107.4275 80.4893,104.3025 Q80.4893,101.1775 81.8018,99.5213 Q83.1299,97.865 85.6299,97.865 Q86.333,97.865 86.9736,98.0213 Q87.6299,98.1775 88.1924,98.4744 L88.1924,101.1931 Q87.5674,100.615 86.9736,100.3494 Q86.3799,100.0681 85.7549,100.0681 Q84.4111,100.0681 83.7236,101.1463 Q83.0361,102.2088 83.0361,104.3025 Q83.0361,106.3963 83.7236,107.4744 Q84.4111,108.5369 85.7549,108.5369 Q86.3799,108.5369 86.9736,108.2713 Q87.5674,107.99 88.1924,107.4119 L88.1924,110.1306 Z " fill="#000000"/><text fill="#000000" font-family="sans-serif" font-size="14" lengthAdjust="spacing" textLength="33.4209" x="105.7236" y="109.3367">Main</text><line style="stroke:#181818;stroke-width:0.5;" x1="8" x2="204.3682" y1="120.49" y2="120.49"/><line style="stroke:#181818;stroke-width:0.5;" x1="8" x2="204.3682" y1="128.49" y2="128.49"/><ellipse cx="18" cy="142.1384" fill="#84BE84" rx="3" ry="3" style="stroke:#038048;stroke-width:1.0;"/><text fill="#000000" font-family="sans-serif" font-size="14" lengthAdjust="spacing" textLength="172.3682" x="27" y="145.4851">main(String[] args): void</text></g><!--class Minesweeper--><g id="elem_Minesweeper"><rect codeLine="5" fill="#F1F1F1" height="96.8906" id="Minesweeper" rx="2.5" ry="2.5" style="stroke:#181818;stroke-width:0.5;" width="332.4824" x="272.94" y="72.19"/><ellipse cx="388.5904" cy="88.19" fill="#ADD1B2" rx="11" ry="11" style="stroke:#181818;stroke-width:1.0;"/><path d="M391.5591,93.8306 Q390.981,94.1275 390.3404,94.2681 Q389.6998,94.4244 388.9966,94.4244 Q386.4966,94.4244 385.1685,92.7838 Q383.856,91.1275 383.856,88.0025 Q383.856,84.8775 385.1685,83.2213 Q386.4966,81.565 388.9966,81.565 Q389.6998,81.565 390.3404,81.7213 Q390.9966,81.8775 391.5591,82.1744 L391.5591,84.8931 Q390.9341,84.315 390.3404,84.0494 Q389.7466,83.7681 389.1216,83.7681 Q387.7779,83.7681 387.0904,84.8463 Q386.4029,85.9088 386.4029,88.0025 Q386.4029,90.0963 387.0904,91.1744 Q387.7779,92.2369 389.1216,92.2369 Q389.7466,92.2369 390.3404,91.9713 Q390.9341,91.69 391.5591,91.1119 L391.5591,93.8306 Z " fill="#000000"/><text fill="#000000" font-family="sans-serif" font-size="14" lengthAdjust="spacing" textLength="92.6816" x="409.0904" y="93.0367">Minesweeper</text><line style="stroke:#181818;stroke-width:0.5;" x1="273.94" x2="604.4224" y1="104.19" y2="104.19"/><rect fill="none" height="6" style="stroke:#C82930;stroke-width:1.0;" width="6" x="280.94" y="114.8384"/><text fill="#000000" font-family="sans-serif" font-size="14" lengthAdjust="spacing" textLength="91.2324" x="292.94" y="121.1851">board: Board</text><line style="stroke:#181818;stroke-width:0.5;" x1="273.94" x2="604.4224" y1="128.4869" y2="128.4869"/><ellipse cx="283.94" cy="142.1353" fill="#84BE84" rx="3" ry="3" style="stroke:#038048;stroke-width:1.0;"/><text fill="#000000" font-family="sans-serif" font-size="14" lengthAdjust="spacing" textLength="306.4824" x="292.94" y="145.482">Minesweeper(rows: int, cols: int, mines: int)</text><ellipse cx="283.94" cy="158.4322" fill="#84BE84" rx="3" ry="3" style="stroke:#038048;stroke-width:1.0;"/><text fill="#000000" font-family="sans-serif" font-size="14" lengthAdjust="spacing" textLength="79.3584" x="292.94" y="161.7789">play(): void</text></g><!--class Board--><g id="elem_Board"><rect codeLine="11" fill="#F1F1F1" height="227.2656" id="Board" rx="2.5" ry="2.5" style="stroke:#181818;stroke-width:0.5;" width="315.8574" x="673.26" y="7"/><ellipse cx="806.2429" cy="23" fill="#ADD1B2" rx="11" ry="11" style="stroke:#181818;stroke-width:1.0;"/><path d="M809.2117,28.6406 Q808.6335,28.9375 807.9929,29.0781 Q807.3523,29.2344 806.6492,29.2344 Q804.1492,29.2344 802.821,27.5938 Q801.5085,25.9375 801.5085,22.8125 Q801.5085,19.6875 802.821,18.0313 Q804.1492,16.375 806.6492,16.375 Q807.3523,16.375 807.9929,16.5313 Q808.6492,16.6875 809.2117,16.9844 L809.2117,19.7031 Q808.5867,19.125 807.9929,18.8594 Q807.3992,18.5781 806.7742,18.5781 Q805.4304,18.5781 804.7429,19.6563 Q804.0554,20.7188 804.0554,22.8125 Q804.0554,24.9063 804.7429,25.9844 Q805.4304,27.0469 806.7742,27.0469 Q807.3992,27.0469 807.9929,26.7813 Q808.5867,26.5 809.2117,25.9219 L809.2117,28.6406 Z " fill="#000000"/><text fill="#000000" font-family="sans-serif" font-size="14" lengthAdjust="spacing" textLength="41.3916" x="826.7429" y="27.8467">Board</text><line style="stroke:#181818;stroke-width:0.5;" x1="674.26" x2="988.1174" y1="39" y2="39"/><rect fill="none" height="6" style="stroke:#C82930;stroke-width:1.0;" width="6" x="681.26" y="49.6484"/><text fill="#000000" font-family="sans-serif" font-size="14" lengthAdjust="spacing" textLength="60.4844" x="693.26" y="55.9951">rows: int</text><rect fill="none" height="6" style="stroke:#C82930;stroke-width:1.0;" width="6" x="681.26" y="65.9453"/><text fill="#000000" font-family="sans-serif" font-size="14" lengthAdjust="spacing" textLength="54.8652" x="693.26" y="72.292">cols: int</text><rect fill="none" height="6" style="stroke:#C82930;stroke-width:1.0;" width="6" x="681.26" y="82.2422"/><text fill="#000000" font-family="sans-serif" font-size="14" lengthAdjust="spacing" textLength="84.6016" x="693.26" y="88.5889">grid: Cell[][]</text><line style="stroke:#181818;stroke-width:0.5;" x1="674.26" x2="988.1174" y1="95.8906" y2="95.8906"/><ellipse cx="684.26" cy="109.5391" fill="#84BE84" rx="3" ry="3" style="stroke:#038048;stroke-width:1.0;"/><text fill="#000000" font-family="sans-serif" font-size="14" lengthAdjust="spacing" textLength="285.0176" x="693.26" y="112.8857">Board(rows: int, cols: int, numMines: int)</text><rect fill="#F24D5C" height="6" style="stroke:#C82930;stroke-width:1.0;" width="6" x="681.26" y="122.8359"/><text fill="#000000" font-family="sans-serif" font-size="14" lengthAdjust="spacing" textLength="149.4609" x="693.26" y="129.1826">initializeBoard(): void</text><rect fill="#F24D5C" height="6" style="stroke:#C82930;stroke-width:1.0;" width="6" x="681.26" y="139.1328"/><text fill="#000000" font-family="sans-serif" font-size="14" lengthAdjust="spacing" textLength="227.6846" x="693.26" y="145.4795">placeMines(numMines: int): void</text><rect fill="#F24D5C" height="6" style="stroke:#C82930;stroke-width:1.0;" width="6" x="681.26" y="155.4297"/><text fill="#000000" font-family="sans-serif" font-size="14" lengthAdjust="spacing" textLength="215.3799" x="693.26" y="161.7764">calculateAdjacentMines(): void</text><rect fill="#F24D5C" height="6" style="stroke:#C82930;stroke-width:1.0;" width="6" x="681.26" y="171.7266"/><text fill="#000000" font-family="sans-serif" font-size="14" lengthAdjust="spacing" textLength="289.8574" x="693.26" y="178.0732">countAdjacentMines(row: int, col: int): int</text><ellipse cx="684.26" cy="191.0234" fill="#84BE84" rx="3" ry="3" style="stroke:#038048;stroke-width:1.0;"/><text fill="#000000" font-family="sans-serif" font-size="14" lengthAdjust="spacing" textLength="203.1162" x="693.26" y="194.3701">reveal(row: int, col: int): void</text><ellipse cx="684.26" cy="207.3203" fill="#84BE84" rx="3" ry="3" style="stroke:#038048;stroke-width:1.0;"/><text fill="#000000" font-family="sans-serif" font-size="14" lengthAdjust="spacing" textLength="230.3643" x="693.26" y="210.667">isMine(row: int, col: int): boolean</text><ellipse cx="684.26" cy="223.6172" fill="#84BE84" rx="3" ry="3" style="stroke:#038048;stroke-width:1.0;"/><text fill="#000000" font-family="sans-serif" font-size="14" lengthAdjust="spacing" textLength="124.0039" x="693.26" y="226.9639">printBoard(): void</text></g><!--class Cell--><g id="elem_Cell"><rect codeLine="25" fill="#F1F1F1" height="210.9688" id="Cell" rx="2.5" ry="2.5" style="stroke:#181818;stroke-width:0.5;" width="328.2441" x="1082.06" y="15.15"/><ellipse cx="1228.8481" cy="31.15" fill="#ADD1B2" rx="11" ry="11" style="stroke:#181818;stroke-width:1.0;"/><path d="M1231.8168,36.7906 Q1231.2387,37.0875 1230.5981,37.2281 Q1229.9575,37.3844 1229.2543,37.3844 Q1226.7543,37.3844 1225.4262,35.7438 Q1224.1137,34.0875 1224.1137,30.9625 Q1224.1137,27.8375 1225.4262,26.1813 Q1226.7543,24.525 1229.2543,24.525 Q1229.9575,24.525 1230.5981,24.6813 Q1231.2543,24.8375 1231.8168,25.1344 L1231.8168,27.8531 Q1231.1918,27.275 1230.5981,27.0094 Q1230.0043,26.7281 1229.3793,26.7281 Q1228.0356,26.7281 1227.3481,27.8063 Q1226.6606,28.8688 1226.6606,30.9625 Q1226.6606,33.0563 1227.3481,34.1344 Q1228.0356,35.1969 1229.3793,35.1969 Q1230.0043,35.1969 1230.5981,34.9313 Q1231.1918,34.65 1231.8168,34.0719 L1231.8168,36.7906 Z " fill="#000000"/><text fill="#000000" font-family="sans-serif" font-size="14" lengthAdjust="spacing" textLength="26.168" x="1249.3481" y="35.9967">Cell</text><line style="stroke:#181818;stroke-width:0.5;" x1="1083.06" x2="1409.3041" y1="47.15" y2="47.15"/><rect fill="none" height="6" style="stroke:#C82930;stroke-width:1.0;" width="6" x="1090.06" y="57.7984"/><text fill="#000000" font-family="sans-serif" font-size="14" lengthAdjust="spacing" textLength="109.7783" x="1102.06" y="64.1451">isMine: boolean</text><rect fill="none" height="6" style="stroke:#C82930;stroke-width:1.0;" width="6" x="1090.06" y="74.0953"/><text fill="#000000" font-family="sans-serif" font-size="14" lengthAdjust="spacing" textLength="141.5313" x="1102.06" y="80.442">isRevealed: boolean</text><rect fill="none" height="6" style="stroke:#C82930;stroke-width:1.0;" width="6" x="1090.06" y="90.3922"/><text fill="#000000" font-family="sans-serif" font-size="14" lengthAdjust="spacing" textLength="128.7754" x="1102.06" y="96.7389">adjacentMines: int</text><line style="stroke:#181818;stroke-width:0.5;" x1="1083.06" x2="1409.3041" y1="104.0406" y2="104.0406"/><ellipse cx="1093.06" cy="117.6891" fill="#84BE84" rx="3" ry="3" style="stroke:#038048;stroke-width:1.0;"/><text fill="#000000" font-family="sans-serif" font-size="14" lengthAdjust="spacing" textLength="37.0918" x="1102.06" y="121.0357">Cell()</text><ellipse cx="1093.06" cy="133.9859" fill="#84BE84" rx="3" ry="3" style="stroke:#038048;stroke-width:1.0;"/><text fill="#000000" font-family="sans-serif" font-size="14" lengthAdjust="spacing" textLength="120.7021" x="1102.06" y="137.3326">isMine(): boolean</text><ellipse cx="1093.06" cy="150.2828" fill="#84BE84" rx="3" ry="3" style="stroke:#038048;stroke-width:1.0;"/><text fill="#000000" font-family="sans-serif" font-size="14" lengthAdjust="spacing" textLength="214.3477" x="1102.06" y="153.6295">setMine(isMine: boolean): void</text><ellipse cx="1093.06" cy="166.5797" fill="#84BE84" rx="3" ry="3" style="stroke:#038048;stroke-width:1.0;"/><text fill="#000000" font-family="sans-serif" font-size="14" lengthAdjust="spacing" textLength="152.4551" x="1102.06" y="169.9264">isRevealed(): boolean</text><ellipse cx="1093.06" cy="182.8766" fill="#84BE84" rx="3" ry="3" style="stroke:#038048;stroke-width:1.0;"/><text fill="#000000" font-family="sans-serif" font-size="14" lengthAdjust="spacing" textLength="93.4541" x="1102.06" y="186.2232">reveal(): void</text><ellipse cx="1093.06" cy="199.1734" fill="#84BE84" rx="3" ry="3" style="stroke:#038048;stroke-width:1.0;"/><text fill="#000000" font-family="sans-serif" font-size="14" lengthAdjust="spacing" textLength="163.6865" x="1102.06" y="202.5201">getAdjacentMines(): int</text><ellipse cx="1093.06" cy="215.4703" fill="#84BE84" rx="3" ry="3" style="stroke:#038048;stroke-width:1.0;"/><text fill="#000000" font-family="sans-serif" font-size="14" lengthAdjust="spacing" textLength="302.2441" x="1102.06" y="218.817">setAdjacentMines(adjacentMines: int): void</text></g><!--link Main to Minesweeper--><g id="link_Main_Minesweeper"><path codeLine="38" d="M205.64,120.64 C226.82,120.64 243.74,120.64 266.65,120.64 " fill="none" id="Main-to-Minesweeper" style="stroke:#181818;stroke-width:1.0;"/><polygon fill="#181818" points="272.65,120.64,263.65,116.64,267.65,120.64,263.65,124.64,272.65,120.64" style="stroke:#181818;stroke-width:1.0;"/><text fill="#000000" font-family="sans-serif" font-size="13" lengthAdjust="spacing" textLength="31.0591" x="223.66" y="113.7069">Uses</text></g><!--link Minesweeper to Board--><g id="link_Minesweeper_Board"><path codeLine="39" d="M605.71,120.64 C628.02,120.64 644.86,120.64 667.02,120.64 " fill="none" id="Minesweeper-to-Board" style="stroke:#181818;stroke-width:1.0;"/><polygon fill="#181818" points="673.02,120.64,664.02,116.64,668.02,120.64,664.02,124.64,673.02,120.64" style="stroke:#181818;stroke-width:1.0;"/><text fill="#000000" font-family="sans-serif" font-size="13" lengthAdjust="spacing" textLength="31.0591" x="623.84" y="113.7069">Uses</text></g><!--link Board to Cell--><g id="link_Board_Cell"><path codeLine="40" d="M989.56,120.64 C1019.78,120.64 1045.47,120.64 1075.87,120.64 " fill="none" id="Board-to-Cell" style="stroke:#181818;stroke-width:1.0;"/><polygon fill="#181818" points="1081.87,120.64,1072.87,116.64,1076.87,120.64,1072.87,124.64,1081.87,120.64" style="stroke:#181818;stroke-width:1.0;"/><text fill="#000000" font-family="sans-serif" font-size="13" lengthAdjust="spacing" textLength="56.9575" x="1007.59" y="113.7069">Contains</text></g><!--SRC=[TLEnRiCW4Dtz5IWJbkiVy52fpPobKIVB0y4dYmf313XHM_NVYy5GmAaNmzrxxzuTG3dH6fq84-YxGlPhPhl6PwEOcFe14JNfkaCtoSRgfwgeXpC1-Wvm1RMnseiaQkpGw_hpEWa8AtdN7MB2F24gULZEAyAjQq-vSlA9TzMSPgWJbVmsgldjf9WrSGJE-w4VlAYZ_-D0BFEfCD4omGmZd7s1PmO_BcaTKd0Kd7DJ42MSBfmOU1a_B5mOJyWnSX4cprkBVmw3QcYjKN03mX-3ecp3zAhr67MHaWCHswZj-PgymJZmTNvXtbum9zlWctC3Ov4WQKE9-LKHrvd5qf06ny95mQAxK7T7tyQJmISmknE8bdIPt7jF1kCUIFkStVmE7Turw4EL1Yt6tzUOzLiRTsEruQCKnihfmoy0]--></g></svg>